<svg xmlns="http://www.w3.org/2000/svg" version="1.1" width="1000" height="1000" viewBox="0 0 1000 1000"
     xml:space="preserve">
<desc>Created with Fabric.js 3.5.0</desc>
    <defs>
</defs>
    <g transform="matrix(7.0522 0 0 7.0522 450.0006 550.0008)" id="865537">
<g style="" vector-effect="non-scaling-stroke">
		<g transform="matrix(1 0 0 1 0.505 14.21)" id="Layer_1">
<circle style="stroke: none; stroke-width: 1; stroke-dasharray: none; stroke-linecap: butt; stroke-dashoffset: 0; stroke-linejoin: miter; stroke-miterlimit: 4; is-custom-font: none; font-file-url: none; fill: rgb(256,256,256); fill-rule: nonzero; opacity: 1;"
        cx="0" cy="0" r="13.52"/>
</g>
    <g transform="matrix(1 0 0 1 0 0)" id="Layer_1">
<path style="stroke: none; stroke-width: 1; stroke-dasharray: none; stroke-linecap: butt; stroke-dashoffset: 0; stroke-linejoin: miter; stroke-miterlimit: 4; is-custom-font: none; font-file-url: none; fill: rgb(256,256,256); fill-rule: nonzero; opacity: 1;"
      transform=" translate(-43.595, -56.72)"
      d="M 87.19 0 v 69.84 c 0 24.08 -19.52 43.6 -43.6 43.6 C 19.52 113.44 0 93.92 0 69.84 c 0 -24.08 19.52 -43.6 43.6 -43.6 c 4.46 0 8.77 0.67 12.82 1.92 v 21.6 c -3.7 -2.37 -8.1 -3.74 -12.82 -3.74 c -13.16 0 -23.83 10.66 -23.83 23.82 c 0 13.16 10.67 23.83 23.83 23.83 S 67.42 83 67.42 69.84 V 0 H 87.19 z"
      stroke-linecap="round"/>
</g>
</g>
</g>
</svg>